# Blender 3.6.2
# www.blender.org
mtllib room.mtl
o walls
v -9.968243 0.122545 6.300682
v -9.968243 0.122545 -6.046607
v -10.600000 -0.122545 -6.700000
v 9.968243 0.122545 6.300682
v 9.968243 0.122545 -6.046607
v 10.600000 -0.122545 -6.700000
v -10.600000 0.122545 -6.700000
v -10.600000 0.122545 6.700000
v 10.600000 0.122545 -6.700000
v 10.600000 0.122545 6.700000
v -10.600000 6.122545 -6.700000
v -10.600000 6.122545 6.700000
v 10.600000 6.122545 -6.700000
v 10.600000 6.122545 6.700000
v -9.968243 6.122545 -6.046607
v -9.968243 6.122545 6.300682
v 9.968243 6.122545 -6.046607
v 9.968243 6.122545 6.300682
vn -0.0000 -0.0000 -1.0000
vn 0.5343 -0.0000 0.8453
vn -0.5343 -0.0000 0.8453
vn -0.0000 1.0000 -0.0000
vn -0.0000 -0.0000 1.0000
vn -1.0000 -0.0000 -0.0000
vn 1.0000 -0.0000 -0.0000
vt 0.375000 0.250000
vt 0.625000 0.250000
vt 0.625000 0.500000
vt 0.375000 0.500000
vt 0.132450 0.742550
vt 0.125000 0.750000
vt 0.375000 0.750000
vt 0.367550 0.742550
vt 0.132450 0.512190
vt 0.125000 0.500000
vt 0.367550 0.512190
vt 0.375000 0.000000
s 0
usemtl wallsnew
f 7/1/1 9/4/1 6/3/1 3/2/1
f 7/1/1 11/1/1 13/4/1 9/4/1
f 1/5/2 16/5/2 12/6/2 8/6/2
f 10/7/3 14/7/3 18/8/3 4/8/3
f 15/9/4 11/10/4 12/6/4 16/5/4
f 17/11/4 13/4/4 11/10/4 15/9/4
f 18/8/4 14/7/4 13/4/4 17/11/4
f 5/11/5 17/11/5 15/9/5 2/9/5
f 8/12/6 12/12/6 11/1/6 7/1/6
f 9/4/7 13/4/7 14/7/7 10/7/7
f 4/8/6 18/8/6 17/11/6 5/11/6
f 2/9/7 15/9/7 16/5/7 1/5/7
o floor
v -9.968243 0.122545 6.300682
v -10.600000 -0.122545 6.700000
v -9.968243 0.122545 -6.046607
v -10.600000 -0.122545 -6.700000
v 9.968243 0.122545 6.300682
v 10.600000 -0.122545 6.700000
v 9.968243 0.122545 -6.046607
v 10.600000 -0.122545 -6.700000
v -10.600000 0.122545 -6.700000
v -10.600000 0.122545 6.700000
v 10.600000 0.122545 -6.700000
v 10.600000 0.122545 6.700000
vn -1.0000 -0.0000 -0.0000
vn 1.0000 -0.0000 -0.0000
vn -0.0000 -0.0000 1.0000
vn -0.0000 1.0000 -0.0000
vn -0.0000 -1.0000 -0.0000
vt 0.375000 0.000000
vt 0.625000 0.000000
vt 0.625000 0.250000
vt 0.375000 0.250000
vt 0.375000 0.500000
vt 0.625000 0.500000
vt 0.625000 0.750000
vt 0.375000 0.750000
vt 0.625000 1.000000
vt 0.375000 1.000000
vt 0.132450 0.512190
vt 0.367550 0.512190
vt 0.367550 0.742550
vt 0.132450 0.742550
vt 0.875000 0.500000
vt 0.875000 0.750000
vt 0.125000 0.750000
s 0
usemtl floornew
f 28/13/8 27/16/8 22/15/8 20/14/8
f 29/17/9 30/20/9 24/19/9 26/18/9
f 30/20/10 28/22/10 20/21/10 24/19/10
f 21/23/11 19/26/11 23/25/11 25/24/11
f 26/18/12 24/19/12 20/28/12 22/27/12
f 19/26/11 28/29/11 30/20/11 23/25/11
o door_frame
v -5.828607 0.083636 -5.893417
v -5.828607 4.289265 -5.893417
v -6.010742 0.000000 -6.872486
v -6.010742 4.471400 -6.872486
v -3.997695 0.083636 -5.893417
v -3.997695 4.289265 -5.893417
v -3.815559 0.000000 -6.872486
v -3.815559 4.471400 -6.872486
v -6.010742 0.000000 -5.893417
v -6.010742 4.471400 -5.893417
v -3.815559 4.471400 -5.893417
v -3.815559 0.000000 -5.893417
v -5.828607 0.083636 -6.007096
v -5.828607 4.289265 -6.007096
v -3.997695 4.289265 -6.007096
v -3.997695 0.083636 -6.007096
vn -1.0000 -0.0000 -0.0000
vn -0.0000 -0.0000 -1.0000
vn 1.0000 -0.0000 -0.0000
vn -0.0000 1.0000 -0.0000
vn -0.0000 -1.0000 -0.0000
vn -0.0000 -0.0000 1.0000
vt 0.375000 0.000000
vt 0.625000 0.000000
vt 0.625000 0.250000
vt 0.375000 0.250000
vt 0.625000 0.500000
vt 0.375000 0.500000
vt 0.625000 0.750000
vt 0.375000 0.750000
vt 0.385183 0.979257
vt 0.385183 0.770743
vt 0.125000 0.500000
vt 0.125000 0.750000
vt 0.875000 0.500000
vt 0.875000 0.750000
vt 0.614817 0.979257
vt 0.625000 1.000000
vt 0.375000 1.000000
vt 0.614817 0.770743
s 0
usemtl frame
f 39/30/13 40/31/13 34/32/13 33/33/13
f 33/33/14 34/32/14 38/34/14 37/35/14
f 37/35/15 38/34/15 41/36/15 42/37/15
f 31/38/16 35/39/16 46/39/16 43/38/16
f 33/40/17 37/35/17 42/37/17 39/41/17
f 38/34/16 34/42/16 40/43/16 41/36/16
f 31/38/18 32/44/18 40/45/18 39/46/18
f 36/47/18 35/39/18 42/37/18 41/36/18
f 35/39/18 31/38/18 39/46/18 42/37/18
f 32/44/18 36/47/18 41/36/18 40/45/18
f 32/44/15 31/38/15 43/38/15 44/44/15
f 36/47/17 32/44/17 44/44/17 45/47/17
f 35/39/13 36/47/13 45/47/13 46/39/13
o knob_placement
v -4.269163 2.208072 -5.981503
v -4.268000 2.208072 -6.069232
v -4.240191 2.205288 -5.981119
v -4.239028 2.205288 -6.068849
v -4.212318 2.196903 -5.980749
v -4.211155 2.196903 -6.068479
v -4.186616 2.183242 -5.980409
v -4.185453 2.183242 -6.068138
v -4.164073 2.164828 -5.980110
v -4.162910 2.164828 -6.067839
v -4.145555 2.142369 -5.979864
v -4.144392 2.142369 -6.067594
v -4.131773 2.116728 -5.979681
v -4.130610 2.116728 -6.067411
v -4.123258 2.088891 -5.979568
v -4.122095 2.088891 -6.067298
v -4.120337 2.059927 -5.979530
v -4.119174 2.059927 -6.067260
v -4.123120 2.030950 -5.979567
v -4.121957 2.030950 -6.067297
v -4.131503 2.003073 -5.979678
v -4.130340 2.003073 -6.067408
v -4.145163 1.977367 -5.979859
v -4.144000 1.977367 -6.067589
v -4.163573 1.954820 -5.980103
v -4.162410 1.954820 -6.067833
v -4.186028 1.936299 -5.980401
v -4.184865 1.936299 -6.068130
v -4.211665 1.922515 -5.980741
v -4.210502 1.922515 -6.068470
v -4.239498 1.913998 -5.981110
v -4.238335 1.913998 -6.068839
v -4.268456 1.911076 -5.981493
v -4.267293 1.911076 -6.069223
v -4.297429 1.913861 -5.981877
v -4.296266 1.913861 -6.069607
v -4.325301 1.922245 -5.982247
v -4.324138 1.922245 -6.069977
v -4.351003 1.935906 -5.982588
v -4.349840 1.935906 -6.070317
v -4.373546 1.954320 -5.982887
v -4.372383 1.954320 -6.070616
v -4.392064 1.976779 -5.983132
v -4.390901 1.976779 -6.070862
v -4.405846 2.002420 -5.983315
v -4.404683 2.002420 -6.071044
v -4.414361 2.030257 -5.983428
v -4.413198 2.030257 -6.071157
v -4.417283 2.059221 -5.983466
v -4.416120 2.059221 -6.071196
v -4.414499 2.088198 -5.983429
v -4.413336 2.088198 -6.071159
v -4.406116 2.116076 -5.983318
v -4.404953 2.116076 -6.071048
v -4.392457 2.141782 -5.983137
v -4.391294 2.141782 -6.070867
v -4.374046 2.164328 -5.982893
v -4.372883 2.164328 -6.070623
v -4.351591 2.182849 -5.982595
v -4.350428 2.182849 -6.070325
v -4.325954 2.196633 -5.982255
v -4.324791 2.196633 -6.069985
v -4.298121 2.205150 -5.981887
v -4.296958 2.205150 -6.069616
vn 0.0956 0.9954 0.0013
vn 0.2880 0.9576 0.0038
vn 0.4693 0.8830 0.0062
vn 0.6325 0.7745 0.0084
vn 0.7715 0.6362 0.0102
vn 0.8807 0.4735 0.0117
vn 0.9562 0.2925 0.0127
vn 0.9949 0.1004 0.0132
vn 0.9953 -0.0956 0.0132
vn 0.9576 -0.2880 0.0127
vn 0.8830 -0.4693 0.0117
vn 0.7745 -0.6325 0.0103
vn 0.6362 -0.7715 0.0084
vn 0.4735 -0.8808 0.0063
vn 0.2926 -0.9562 0.0039
vn 0.1004 -0.9949 0.0013
vn -0.0956 -0.9954 -0.0013
vn -0.2880 -0.9576 -0.0038
vn -0.4693 -0.8830 -0.0062
vn -0.6325 -0.7745 -0.0084
vn -0.7715 -0.6362 -0.0102
vn -0.8807 -0.4735 -0.0117
vn -0.9562 -0.2925 -0.0127
vn -0.9949 -0.1004 -0.0132
vn -0.9953 0.0956 -0.0132
vn -0.9576 0.2880 -0.0127
vn -0.8830 0.4693 -0.0117
vn -0.7745 0.6325 -0.0103
vn -0.6362 0.7715 -0.0084
vn -0.4735 0.8808 -0.0063
vn 0.0133 -0.0000 -0.9999
vn -0.2926 0.9562 -0.0039
vn -0.1004 0.9949 -0.0013
vn -0.0133 -0.0000 0.9999
vt 1.000000 0.500000
vt 1.000000 1.000000
vt 0.968750 1.000000
vt 0.968750 0.500000
vt 0.937500 1.000000
vt 0.937500 0.500000
vt 0.906250 1.000000
vt 0.906250 0.500000
vt 0.875000 1.000000
vt 0.875000 0.500000
vt 0.843750 1.000000
vt 0.843750 0.500000
vt 0.812500 1.000000
vt 0.812500 0.500000
vt 0.781250 1.000000
vt 0.781250 0.500000
vt 0.750000 1.000000
vt 0.750000 0.500000
vt 0.718750 1.000000
vt 0.718750 0.500000
vt 0.687500 1.000000
vt 0.687500 0.500000
vt 0.656250 1.000000
vt 0.656250 0.500000
vt 0.625000 1.000000
vt 0.625000 0.500000
vt 0.593750 1.000000
vt 0.593750 0.500000
vt 0.562500 1.000000
vt 0.562500 0.500000
vt 0.531250 1.000000
vt 0.531250 0.500000
vt 0.500000 1.000000
vt 0.500000 0.500000
vt 0.468750 1.000000
vt 0.468750 0.500000
vt 0.437500 1.000000
vt 0.437500 0.500000
vt 0.406250 1.000000
vt 0.406250 0.500000
vt 0.375000 1.000000
vt 0.375000 0.500000
vt 0.343750 1.000000
vt 0.343750 0.500000
vt 0.312500 1.000000
vt 0.312500 0.500000
vt 0.281250 1.000000
vt 0.281250 0.500000
vt 0.250000 1.000000
vt 0.250000 0.500000
vt 0.218750 1.000000
vt 0.218750 0.500000
vt 0.187500 1.000000
vt 0.187500 0.500000
vt 0.156250 1.000000
vt 0.156250 0.500000
vt 0.125000 1.000000
vt 0.125000 0.500000
vt 0.093750 1.000000
vt 0.093750 0.500000
vt 0.062500 1.000000
vt 0.062500 0.500000
vt 0.296822 0.485388
vt 0.250000 0.490000
vt 0.203178 0.485388
vt 0.158156 0.471731
vt 0.116663 0.449553
vt 0.080294 0.419706
vt 0.050447 0.383337
vt 0.028269 0.341844
vt 0.014612 0.296822
vt 0.010000 0.250000
vt 0.014612 0.203178
vt 0.028269 0.158156
vt 0.050447 0.116663
vt 0.080294 0.080294
vt 0.116663 0.050447
vt 0.158156 0.028269
vt 0.203178 0.014612
vt 0.250000 0.010000
vt 0.296822 0.014612
vt 0.341844 0.028269
vt 0.383337 0.050447
vt 0.419706 0.080294
vt 0.449553 0.116663
vt 0.471731 0.158156
vt 0.485388 0.203178
vt 0.490000 0.250000
vt 0.485388 0.296822
vt 0.471731 0.341844
vt 0.449553 0.383337
vt 0.419706 0.419706
vt 0.383337 0.449553
vt 0.341844 0.471731
vt 0.031250 1.000000
vt 0.031250 0.500000
vt 0.000000 1.000000
vt 0.000000 0.500000
vt 0.750000 0.490000
vt 0.796822 0.485388
vt 0.841844 0.471731
vt 0.883337 0.449553
vt 0.919706 0.419706
vt 0.949553 0.383337
vt 0.971731 0.341844
vt 0.985388 0.296822
vt 0.990000 0.250000
vt 0.985388 0.203178
vt 0.971731 0.158156
vt 0.949553 0.116663
vt 0.919706 0.080294
vt 0.883337 0.050447
vt 0.841844 0.028269
vt 0.796822 0.014612
vt 0.750000 0.010000
vt 0.703178 0.014612
vt 0.658156 0.028269
vt 0.616663 0.050447
vt 0.580294 0.080294
vt 0.550447 0.116663
vt 0.528269 0.158156
vt 0.514612 0.203178
vt 0.510000 0.250000
vt 0.514612 0.296822
vt 0.528269 0.341844
vt 0.550447 0.383337
vt 0.580294 0.419706
vt 0.616663 0.449553
vt 0.658156 0.471731
vt 0.703178 0.485388
s 0
usemtl knob
f 47/48/19 49/51/19 50/50/19 48/49/19
f 49/51/20 51/53/20 52/52/20 50/50/20
f 51/53/21 53/55/21 54/54/21 52/52/21
f 53/55/22 55/57/22 56/56/22 54/54/22
f 55/57/23 57/59/23 58/58/23 56/56/23
f 57/59/24 59/61/24 60/60/24 58/58/24
f 59/61/25 61/63/25 62/62/25 60/60/25
f 61/63/26 63/65/26 64/64/26 62/62/26
f 63/65/27 65/67/27 66/66/27 64/64/27
f 65/67/28 67/69/28 68/68/28 66/66/28
f 67/69/29 69/71/29 70/70/29 68/68/29
f 69/71/30 71/73/30 72/72/30 70/70/30
f 71/73/31 73/75/31 74/74/31 72/72/31
f 73/75/32 75/77/32 76/76/32 74/74/32
f 75/77/33 77/79/33 78/78/33 76/76/33
f 77/79/34 79/81/34 80/80/34 78/78/34
f 79/81/35 81/83/35 82/82/35 80/80/35
f 81/83/36 83/85/36 84/84/36 82/82/36
f 83/85/37 85/87/37 86/86/37 84/84/37
f 85/87/38 87/89/38 88/88/38 86/86/38
f 87/89/39 89/91/39 90/90/39 88/88/39
f 89/91/40 91/93/40 92/92/40 90/90/40
f 91/93/41 93/95/41 94/94/41 92/92/41
f 93/95/42 95/97/42 96/96/42 94/94/42
f 95/97/43 97/99/43 98/98/43 96/96/43
f 97/99/44 99/101/44 100/100/44 98/98/44
f 99/101/45 101/103/45 102/102/45 100/100/45
f 101/103/46 103/105/46 104/104/46 102/102/46
f 103/105/47 105/107/47 106/106/47 104/104/47
f 105/107/48 107/109/48 108/108/48 106/106/48
f 50/110/49 52/141/49 54/140/49 56/139/49 58/138/49 60/137/49 62/136/49 64/135/49 66/134/49 68/133/49 70/132/49 72/131/49 74/130/49 76/129/49 78/128/49 80/127/49 82/126/49 84/125/49 86/124/49 88/123/49 90/122/49 92/121/49 94/120/49 96/119/49 98/118/49 100/117/49 102/116/49 104/115/49 106/114/49 108/113/49 110/112/49 48/111/49
f 107/109/50 109/143/50 110/142/50 108/108/50
f 109/143/51 47/145/51 48/144/51 110/142/51
f 47/146/52 109/177/52 107/176/52 105/175/52 103/174/52 101/173/52 99/172/52 97/171/52 95/170/52 93/169/52 91/168/52 89/167/52 87/166/52 85/165/52 83/164/52 81/163/52 79/162/52 77/161/52 75/160/52 73/159/52 71/158/52 69/157/52 67/156/52 65/155/52 63/154/52 61/153/52 59/152/52 57/151/52 55/150/52 53/149/52 51/148/52 49/147/52
o knob_extension
v -4.224718 2.102203 -6.117677
v -4.224718 2.018153 -6.117677
v -4.224718 2.102203 -5.930212
v -4.224718 2.018153 -5.930212
v -4.308768 2.102203 -6.117677
v -4.308768 2.018153 -6.117677
v -4.308768 2.102203 -5.930212
v -4.308768 2.018153 -5.930212
vn 1.0000 -0.0000 -0.0000
vn -0.0000 -0.0000 1.0000
vn -1.0000 -0.0000 -0.0000
vn -0.0000 -0.0000 -1.0000
vn -0.0000 1.0000 -0.0000
vn -0.0000 -1.0000 -0.0000
vt 0.375000 0.000000
vt 0.625000 0.000000
vt 0.625000 0.250000
vt 0.375000 0.250000
vt 0.625000 0.500000
vt 0.375000 0.500000
vt 0.625000 0.750000
vt 0.375000 0.750000
vt 0.625000 1.000000
vt 0.375000 1.000000
vt 0.125000 0.500000
vt 0.125000 0.750000
vt 0.875000 0.500000
vt 0.875000 0.750000
s 0
f 111/178/53 113/181/53 114/180/53 112/179/53
f 113/181/54 117/183/54 118/182/54 114/180/54
f 117/183/55 115/185/55 116/184/55 118/182/55
f 115/185/56 111/187/56 112/186/56 116/184/56
f 113/188/57 111/189/57 115/185/57 117/183/57
f 118/182/58 116/184/58 112/191/58 114/190/58
o knob
v -4.198443 2.128478 -5.935392
v -4.198443 1.991879 -5.935392
v -4.198443 2.128478 -5.798793
v -4.198443 1.991879 -5.798793
v -4.335042 2.128478 -5.935392
v -4.335042 1.991879 -5.935392
v -4.335042 2.128478 -5.798793
v -4.335042 1.991879 -5.798793
v -4.183476 2.143445 -5.867093
v -4.183476 2.060178 -5.950359
v -4.183476 1.976912 -5.867093
v -4.183476 2.060178 -5.783826
v -4.266743 2.143445 -5.783826
v -4.266743 1.976912 -5.783826
v -4.350009 2.060178 -5.783826
v -4.350009 2.143445 -5.867093
v -4.350009 1.976912 -5.867093
v -4.350009 2.060178 -5.950359
v -4.266743 2.143445 -5.950359
v -4.266743 1.976912 -5.950359
v -4.152067 2.060178 -5.867093
v -4.266743 2.060178 -5.752417
v -4.381419 2.060178 -5.867093
v -4.266743 2.060178 -5.981769
v -4.266743 2.174854 -5.867093
v -4.266743 1.945502 -5.867093
vn 0.9015 0.3061 -0.3061
vn 0.9015 -0.3061 -0.3061
vn 0.9015 -0.3061 0.3061
vn 0.9015 0.3061 0.3061
vn 0.3061 0.3061 0.9015
vn 0.3061 -0.3061 0.9015
vn -0.3061 -0.3061 0.9015
vn -0.3061 0.3061 0.9015
vn -0.9015 0.3061 0.3061
vn -0.9015 -0.3061 0.3061
vn -0.9015 -0.3061 -0.3061
vn -0.9015 0.3061 -0.3061
vn -0.3061 0.3061 -0.9015
vn -0.3061 -0.3061 -0.9015
vn 0.3061 -0.3061 -0.9015
vn 0.3061 0.3061 -0.9015
vn 0.3061 0.9015 0.3061
vn -0.3061 0.9015 0.3061
vn -0.3061 0.9015 -0.3061
vn 0.3061 0.9015 -0.3061
vn -0.3061 -0.9015 0.3061
vn 0.3061 -0.9015 0.3061
vn 0.3061 -0.9015 -0.3061
vn -0.3061 -0.9015 -0.3061
vt 0.375000 0.000000
vt 0.500000 0.000000
vt 0.500000 0.125000
vt 0.375000 0.125000
vt 0.625000 0.000000
vt 0.625000 0.125000
vt 0.625000 0.250000
vt 0.500000 0.250000
vt 0.375000 0.250000
vt 0.500000 0.375000
vt 0.375000 0.375000
vt 0.625000 0.375000
vt 0.625000 0.500000
vt 0.500000 0.500000
vt 0.375000 0.500000
vt 0.500000 0.625000
vt 0.375000 0.625000
vt 0.625000 0.625000
vt 0.625000 0.750000
vt 0.500000 0.750000
vt 0.375000 0.750000
vt 0.500000 0.875000
vt 0.375000 0.875000
vt 0.625000 0.875000
vt 0.625000 1.000000
vt 0.500000 1.000000
vt 0.375000 1.000000
vt 0.125000 0.500000
vt 0.250000 0.500000
vt 0.250000 0.625000
vt 0.125000 0.625000
vt 0.250000 0.750000
vt 0.125000 0.750000
vt 0.750000 0.500000
vt 0.750000 0.625000
vt 0.875000 0.500000
vt 0.875000 0.625000
vt 0.875000 0.750000
vt 0.750000 0.750000
s 0
usemtl knob
f 119/192/59 127/195/59 139/194/59 128/193/59
f 128/193/60 139/194/60 129/197/60 120/196/60
f 139/194/61 130/199/61 122/198/61 129/197/61
f 127/195/62 121/200/62 130/199/62 139/194/62
f 121/200/63 131/202/63 140/201/63 130/199/63
f 130/199/64 140/201/64 132/203/64 122/198/64
f 140/201/65 133/205/65 126/204/65 132/203/65
f 131/202/66 125/206/66 133/205/66 140/201/66
f 125/206/67 134/208/67 141/207/67 133/205/67
f 133/205/68 141/207/68 135/209/68 126/204/68
f 141/207/69 136/211/69 124/210/69 135/209/69
f 134/208/70 123/212/70 136/211/70 141/207/70
f 123/212/71 137/214/71 142/213/71 136/211/71
f 136/211/72 142/213/72 138/215/72 124/210/72
f 142/213/73 128/217/73 120/216/73 138/215/73
f 137/214/74 119/218/74 128/217/74 142/213/74
f 121/219/75 127/222/75 143/221/75 131/220/75
f 131/220/76 143/221/76 134/208/76 125/206/76
f 143/221/77 137/223/77 123/212/77 134/208/77
f 127/222/78 119/224/78 137/223/78 143/221/78
f 126/204/79 135/209/79 144/226/79 132/225/79
f 132/225/80 144/226/80 129/228/80 122/227/80
f 144/226/81 138/230/81 120/229/81 129/228/81
f 135/209/82 124/210/82 138/230/82 144/226/82
o window_frame
v 3.643043 4.237482 -5.893417
v 7.765228 4.237483 -5.893417
v 3.475963 4.419618 -6.872486
v 7.947364 4.419618 -6.872486
v 3.643043 2.406570 -5.893417
v 7.765228 2.406570 -5.893417
v 3.475963 2.224435 -6.872486
v 7.947364 2.224435 -6.872486
v 3.475963 4.419618 -5.893417
v 7.947364 4.419618 -5.893417
v 7.947364 2.224435 -5.893417
v 3.475963 2.224435 -5.893417
v 3.643043 4.237482 -6.007096
v 7.765228 4.237483 -6.007096
v 7.765228 2.406570 -6.007096
v 3.643043 2.406570 -6.007096
v 5.807905 4.237482 -5.963856
v 5.600366 4.237482 -5.963856
v 5.600366 2.406570 -5.963856
v 5.807905 2.406570 -5.963856
v 5.815434 4.419618 -5.893417
v 5.607892 4.419618 -5.893417
v 5.607893 4.419618 -6.872486
v 5.815434 4.419618 -6.872486
v 5.607894 2.224435 -6.872486
v 5.815434 2.224435 -6.872486
v 5.607892 2.224435 -5.893417
v 5.815435 2.224435 -5.893417
v 5.807907 4.237482 -5.893417
v 5.600364 4.237482 -5.893417
v 5.600364 2.406570 -5.893417
v 5.807907 2.406570 -5.893417
v 5.600366 4.237482 -6.007096
v 5.807905 4.237482 -6.007096
v 5.807905 2.406570 -6.007096
v 5.600366 2.406570 -6.007096
vn -0.0000 -0.0000 1.0000
vn -0.0000 -1.0000 -0.0000
vn 1.0000 -0.0000 -0.0000
vn -1.0000 -0.0000 -0.0000
vn -0.0000 1.0000 -0.0000
vn -0.0000 -0.0000 -1.0000
vt 0.385183 0.979257
vt 0.494219 0.979257
vt 0.494198 1.000000
vt 0.375000 1.000000
vt 0.375000 0.500000
vt 0.494198 0.500000
vt 0.494198 0.750000
vt 0.375000 0.750000
vt 0.494219 0.770743
vt 0.385183 0.770743
vt 0.125000 0.500000
vt 0.125000 0.750000
vt 0.625000 0.500000
vt 0.875000 0.500000
vt 0.875000 0.750000
vt 0.625000 0.750000
vt 0.375000 0.000000
vt 0.494198 0.000000
vt 0.494198 0.250000
vt 0.375000 0.250000
vt 0.614817 0.770743
vt 0.505781 0.770743
vt 0.505802 0.750000
vt 0.614817 0.979257
vt 0.625000 1.000000
vt 0.494219 0.770743
vt 0.494219 0.770743
vt 0.505781 0.770743
vt 0.494219 0.979257
vt 0.494219 0.979257
vt 0.505781 0.979257
vt 0.494219 0.770743
vt 0.505781 0.979257
vt 0.494198 0.250000
vt 0.494198 0.500000
vt 0.505802 0.500000
vt 0.505802 0.750000
vt 0.505802 0.250000
vt 0.625000 0.250000
vt 0.505802 0.000000
vt 0.625000 0.000000
vt 0.505781 0.979257
vt 0.505802 1.000000
s 0
f 145/231/83 174/232/83 166/233/83 153/234/83
f 151/235/84 169/236/84 171/237/84 156/238/84
f 175/239/83 149/240/83 156/238/83 171/237/83
f 145/231/85 149/240/85 160/240/85 157/231/85
f 147/241/86 151/235/86 156/238/86 153/242/86
f 152/243/85 148/244/85 154/245/85 155/246/85
f 153/247/87 166/248/87 167/249/87 147/250/87
f 150/251/83 176/252/83 172/253/83 155/246/83
f 149/240/83 145/231/83 153/234/83 156/238/83
f 146/254/83 150/251/83 155/246/83 154/255/83
f 149/240/87 175/256/87 180/257/87 160/240/87
f 150/251/86 146/254/86 158/254/86 159/251/86
f 176/252/87 150/251/87 159/251/87 179/258/87
f 174/259/84 145/231/84 157/231/84 177/260/84
f 164/258/83 161/261/83 162/260/83 163/262/83
f 146/254/84 173/263/84 178/261/84 158/254/84
f 147/250/88 167/264/88 169/265/88 151/235/88
f 170/266/84 152/243/84 155/246/84 172/267/84
f 168/268/88 148/269/88 152/243/88 170/266/88
f 165/270/87 154/271/87 148/269/87 168/268/87
f 176/252/87 179/258/87 180/257/87 175/256/87
f 174/259/84 177/260/84 178/261/84 173/263/84
f 180/257/84 179/258/84 164/258/84 163/257/84
f 175/239/83 171/237/83 172/253/83 176/252/83
f 173/272/83 165/273/83 166/233/83 174/232/83
f 170/266/84 172/267/84 171/237/84 169/236/84
f 168/268/88 170/266/88 169/265/88 167/264/88
f 165/270/87 168/268/87 167/249/87 166/248/87
f 173/272/83 146/254/83 154/255/83 165/273/83
f 177/260/86 180/262/86 163/262/86 162/260/86
f 179/258/85 178/261/85 161/261/85 164/258/85
f 178/261/87 177/260/87 162/260/87 161/261/87
o glass
v 3.643043 4.237482 -6.007096
v 7.765228 4.237483 -6.007096
v 7.765228 2.406570 -6.007096
v 3.643043 2.406570 -6.007096
v 5.600366 4.237482 -6.007096
v 5.807905 4.237482 -6.007096
v 5.807905 2.406570 -6.007096
v 5.600366 2.406570 -6.007096
vn -0.0000 -0.0000 1.0000
vt 0.385183 0.770743
vt 0.494219 0.770743
vt 0.494219 0.979257
vt 0.385183 0.979257
vt 0.505781 0.770743
vt 0.614817 0.770743
vt 0.614817 0.979257
vt 0.505781 0.979257
s 0
usemtl windows
f 184/274/89 188/275/89 185/276/89 181/277/89
f 187/278/89 183/279/89 182/280/89 186/281/89
o door
v -5.828607 0.083636 -6.007096
v -5.828607 4.289265 -6.007096
v -3.997695 4.289265 -6.007096
v -3.997695 0.083636 -6.007096
vn -0.0000 -0.0000 1.0000
vt 0.385183 0.770743
vt 0.614817 0.770743
vt 0.614817 0.979257
vt 0.385183 0.979257
s 0
usemtl door
f 192/282/90 191/283/90 190/284/90 189/285/90
